<?xml version="1.0" standalone="no"?>
<!DOCTYPE svg PUBLIC "-//W3C//DTD SVG 20010904//EN"
 "http://www.w3.org/TR/2001/REC-SVG-20010904/DTD/svg10.dtd">
<svg version="1.0" xmlns="http://www.w3.org/2000/svg"
 width="119.000000pt" height="86.000000pt" viewBox="0 0 119.000000 86.000000"
 preserveAspectRatio="xMidYMid meet">
<metadata>
Created by potrace 1.15, written by Peter Selinger 2001-2017
</metadata>
<g transform="translate(0.000000,86.000000) scale(0.100000,-0.100000)"
fill="#000000" stroke="none">
<path d="M0 430 l0 -430 595 0 595 0 0 430 0 430 -595 0 -595 0 0 -430z m546
-338 c-3 -2 -121 47 -262 109 l-257 113 59 53 c60 54 77 61 104 43 12 -8 8
-16 -25 -44 -36 -31 -38 -34 -20 -44 30 -15 343 -152 349 -152 3 0 6 128 6
284 0 284 0 285 23 301 l22 15 3 -336 c1 -186 0 -339 -2 -342z m350 513 c130
-57 239 -107 243 -110 8 -9 -90 -94 -109 -94 -8 -1 -22 4 -30 9 -13 9 -10 15
18 39 l33 28 -183 80 -183 81 -3 -276 c-2 -267 -3 -277 -24 -299 -12 -13 -25
-23 -30 -23 -4 0 -8 153 -8 341 0 334 0 340 20 334 11 -3 126 -53 256 -110z"/>
</g>
</svg>
