<svg version="1.1" id="option_1" xmlns="http://www.w3.org/2000/svg" xmlns:xlink="http://www.w3.org/1999/xlink" x="0px" y="0px" viewBox="0 0 2333.36 2046.31" style="enable-background:new 0 0 2333.36 2046.31;" xml:space="preserve"> 
	<g id="logo" class="logo" width="300px" height="300px">
		<polygon points="1267.99,490.26 1268.16,490.34 1268.01,404.69 1623.45,561.05 1558.53,618.08 1608.73,640.16 1715.04,546.79 1218.59,328.4 1219.75,981.81 1268.79,938.74 "/>
		<polygon points="1146.6,279.89 1097.26,323.23 1097.38,389.3 1097.51,389.19 1098.34,857 742.9,700.64 821.01,632.04 770.81,609.95 651.32,714.9 1147.77,933.3 "/>
	</g>
	<g id="wordmark" class="wordmark" >
	<path d="M525.53,1205.45v51.94c-15.59-11.6-29.62-17.4-42.08-17.4c-13.45,0-24.45,4.95-32.98,14.84
		c-8.53,9.38-12.8,21.92-12.8,37.61c0,13.82,3.03,25.67,9.11,35.56c3.11,5.29,8.24,12.11,15.38,20.47
		c7.14,8.36,16.37,18.42,27.69,30.19c20.83,22,35.03,41.02,42.57,57.05c7.54,15.52,11.32,34.54,11.32,57.05
		c0,30.53-8.29,55.69-24.85,75.47c-16.57,19.28-37.82,28.91-63.74,28.91c-21.82,0-40.44-6.22-55.86-18.68v-52.7
		c18.21,13.82,34.78,20.72,49.71,20.72c13.94,0,24.86-4.82,32.73-14.46c7.87-9.63,11.81-22.73,11.81-39.27
		c0-14.33-3.04-27.2-9.11-38.63c-3.12-5.46-7.47-11.73-13.04-18.81c-5.58-7.08-12.55-14.97-20.92-23.67
		c-12.96-13.3-23.71-25.07-32.24-35.31c-8.53-10.23-14.85-19.19-18.95-26.86c-7.87-15.01-11.81-33.94-11.81-56.8
		c0-30.87,7.71-55.35,23.13-73.43c15.58-18.25,36.5-27.38,62.75-27.38C491.57,1191.89,508.96,1196.41,525.53,1205.45z"/>
	<path d="M610.74,1197.26h51.19v154.53h75.06v-154.53h51.19v395.03h-51.19v-195.47h-75.06v195.47h-51.19V1197.26z"/>
	<path d="M874.18,1197.26h136.09v45.03h-84.9v125.11h75.3v45.03h-75.3v134.83h84.9v45.03H874.18V1197.26z"/>
	<path d="M1087.22,1197.26h50.45l22.89,145.83l3.94,26.35l8.12,57.31c1.31,9.72,2.5,18.59,3.57,26.61
		c1.07,8.02,2.01,15.27,2.83,21.75l2.46,19.44c0.49-3.92,0.9-7.42,1.23-10.49c0.33-3.07,0.65-5.63,0.98-7.68l6.64-45.8l8.61-60.12
		c0.82-5.46,1.6-10.49,2.34-15.09c0.74-4.61,1.43-8.7,2.09-12.28l24.61-145.83h47.74l-74.57,395.03h-40.6L1087.22,1197.26z"/>
	<path d="M1376.11,1192.4h39.87l81.46,395.03h-50.69l-14.27-77.01h-75.3l-14.52,77.01h-49.22L1376.11,1192.4z M1425.08,1469.23
		l-11.32-62.94c-7.55-42.81-13.7-88.52-18.46-137.13c-2.3,23.71-5.25,47.72-8.86,72.02c-3.61,24.31-7.88,50.11-12.8,77.39
		l-9.35,50.66H1425.08z"/>
	<path d="M1532.9,1192.4h166.6v46.56h-57.34v348.46h-50.2v-348.46h-59.06V1192.4z"/>
	<path d="M1945.89,1399.64c0,69.76-7.47,119.31-22.39,148.65c-14.93,29.34-39.95,44.01-75.06,44.01
		c-36.91,0-62.92-15.77-78.01-47.33c-14.93-30.87-22.39-85.71-22.39-164.51c0-70.27,7.38-119.99,22.15-149.16
		c14.93-29.33,40.19-44.01,75.8-44.01c31.83,0,55.45,11.35,70.87,34.03c10.17,15.18,17.55,36.76,22.15,64.73
		C1943.59,1311.97,1945.89,1349.84,1945.89,1399.64z M1892.24,1405.27c0-68.4-2.95-113.76-8.86-136.11
		c-5.91-22.51-17.96-33.77-36.18-33.77c-18.21,0-30.35,10.32-36.42,30.96c-5.91,20.81-8.86,62.6-8.86,125.37
		c0,57.82,3.11,97.91,9.35,120.25c6.4,21.15,18.37,31.72,35.93,31.72c17.23,0,29.04-9.89,35.44-29.68
		C1889.04,1494.39,1892.24,1458.14,1892.24,1405.27z"/>
</g>
</svg>
